<?xml version="1.0" encoding="iso-8859-1"?>
<!-- Generator: Adobe Illustrator 18.0.0, SVG Export Plug-In . SVG Version: 6.00 Build 0)  -->
<!DOCTYPE svg PUBLIC "-//W3C//DTD SVG 1.1//EN" "http://www.w3.org/Graphics/SVG/1.1/DTD/svg11.dtd">
<svg version="1.1" id="Capa_1" xmlns="http://www.w3.org/2000/svg" xmlns:xlink="http://www.w3.org/1999/xlink" x="0px" y="0px"
	 viewBox="0 0 354.001 354.001" style="enable-background:new 0 0 354.001 354.001;" xml:space="preserve">
<path d="M351.647,101.319l-72.17-64.064c-1.281-1.137-2.934-1.765-4.647-1.765h-43.823c-2.04,0-3.979,0.891-5.309,2.438
	c-1.33,1.548-1.918,3.599-1.61,5.616c0.362,2.38,0.546,4.814,0.546,7.237c0,26.265-21.368,47.633-47.633,47.633
	s-47.633-21.368-47.633-47.633c0-2.423,0.184-4.858,0.546-7.237c0.308-2.018-0.281-4.068-1.61-5.616
	c-1.33-1.548-3.269-2.438-5.31-2.438H79.171c-1.713,0-3.366,0.628-4.647,1.765l-72.17,64.064c-2.26,2.006-2.977,5.236-1.779,8.01
	l26.246,60.784c0.892,2.066,2.724,3.578,4.922,4.061c2.197,0.485,4.495-0.119,6.172-1.62l34.256-30.657v169.614c0,3.866,3.134,7,7,7
	h195.66c3.866,0,7-3.134,7-7V141.897l34.256,30.657c1.677,1.501,3.975,2.104,6.172,1.62c2.198-0.484,4.03-1.995,4.922-4.061
	l26.246-60.784C354.625,106.555,353.907,103.325,351.647,101.319z"/>
<g>
</g>
<g>
</g>
<g>
</g>
<g>
</g>
<g>
</g>
<g>
</g>
<g>
</g>
<g>
</g>
<g>
</g>
<g>
</g>
<g>
</g>
<g>
</g>
<g>
</g>
<g>
</g>
<g>
</g>
</svg>
