<?xml version="1.0"?>
<svg xmlns="http://www.w3.org/2000/svg" xmlns:xlink="http://www.w3.org/1999/xlink" width="512px" height="512px" viewBox="0 0 58 41" version="1.1"><g><title class="active-path" style="fill:#369FE5" data-old_color="#0099FF">023 - Packing Furniture</title><desc class="active-path" style="fill:#369FE5" data-old_color="#0099FF">Created with Sketch.</desc><defs class="active-path" style="fill:#369FE5" data-old_color="#0099FF"/><g id="Page-1" stroke="none" stroke-width="1" fill="none" fill-rule="evenodd"><g id="023---Packing-Furniture" fill="#000000" fill-rule="nonzero"><polygon id="Shape" points="26 35 46 35 46 33 36 33 26 33" data-original="#000000" class="active-path" data-old_color="#0099FF" fill="#369FE5"/><path d="M6.445,27.168 C6.78103687,26.9438005 7.21896313,26.9438005 7.555,27.168 L9,28.131 L9,25 L5,25 L5,28.131 L6.445,27.168 Z" id="Shape" data-original="#000000" class="active-path" data-old_color="#0099FF" fill="#369FE5"/><path d="M32,27 L26,27 L26,31 L35,31 L35,30 C35,28.3431458 33.6568542,27 32,27 Z" id="Shape" data-original="#000000" class="active-path" data-old_color="#0099FF" fill="#369FE5"/><path d="M46,24 C45.9941513,21.0720491 48.1112198,18.5713678 51,18.094 L51,15 C50.9966926,11.6876624 48.3123376,9.00330738 45,9 L37,9 L37,17 C37,17.5522847 36.5522847,18 36,18 C35.4477153,18 35,17.5522847 35,17 L35,9 L27,9 C23.6876624,9.00330738 21.0033074,11.6876624 21,15 L21,18.089 C23.924257,18.6621531 26.0253159,21.2372109 26,24.217 L26,25 L32,25 C33.5799521,25.0044337 35.0641457,25.758033 36,27.031 C36.9358543,25.758033 38.4200479,25.0044337 40,25 L46,25 L46,24 Z M29,16 C29,16.5522847 28.5522847,17 28,17 C27.4477153,17 27,16.5522847 27,16 L27,15 C27,14.4477153 27.4477153,14 28,14 C28.5522847,14 29,14.4477153 29,15 L29,16 Z M45,16 C45,16.5522847 44.5522847,17 44,17 C43.4477153,17 43,16.5522847 43,16 L43,15 C43,14.4477153 43.4477153,14 44,14 C44.5522847,14 45,14.4477153 45,15 L45,16 Z" id="Shape" data-original="#000000" class="active-path" data-old_color="#0099FF" fill="#369FE5"/><path d="M46,27 L40,27 C38.3431458,27 37,28.3431458 37,30 L37,31 L46,31 L46,27 Z" id="Shape" data-original="#000000" class="active-path" data-old_color="#0099FF" fill="#369FE5"/><path d="M29,39 L24,39 L24,24.217 C24.0440295,22.1047368 22.494147,20.2965405 20.4,20.017 C20.2670489,20.004441 20.1335372,19.9987668 20,20 C19.00627,19.9968088 18.0477363,20.3677274 17.315,21.039 C16.199701,22.0516629 15.7479342,23.605057 16.1461999,25.0579033 C16.5444657,26.5107497 17.7252127,27.6166261 19.201,27.919 C19.6670347,28.0141286 20.0015727,28.4243558 20.001,28.9 L20.001,39 L18,39 L18,29.659 C17.2596298,29.3914731 16.5797991,28.9794956 16,28.447 L16,39 L14,39 L14,25 L11,25 L11,30 C11.0000552,30.3688869 10.7970216,30.707846 10.471765,30.881874 C10.1465085,31.0559019 9.75185866,31.0367322 9.445,30.832 L7,29.2 L4.555,30.83 C4.24843977,31.034534 3.85423002,31.0538804 3.52911562,30.8803466 C3.20400122,30.7068129 3.00068149,30.368528 3,30 L3,25 L0,25 L0,40 C0,40.5522847 0.44771525,41 1,41 L29,41 C29.5522847,41 30,40.5522847 30,40 C30,39.4477153 29.5522847,39 29,39 Z M21,25 C21,25.5522847 20.5522847,26 20,26 C19.4477153,26 19,25.5522847 19,25 L19,24 C19,23.4477153 19.4477153,23 20,23 C20.5522847,23 21,23.4477153 21,24 L21,25 Z" id="Shape" data-original="#000000" class="active-path" data-old_color="#0099FF" fill="#369FE5"/><path d="M57,39 L52,39 L52,28.9 C51.9994273,28.4243558 52.3339653,28.0141286 52.8,27.919 C54.6532884,27.5453568 55.9919029,25.9251894 56.0092935,24.0346909 C56.026684,22.1441924 54.7181011,20.4996736 52.872,20.092 C52.5852276,20.0317002 52.2930422,20.0008733 52,20 L51.991,20 C51.0757777,19.9977536 50.1883222,20.3141969 49.481,20.895 C48.5432428,21.652828 47.9987876,22.7943092 48,24 L48,39 L43,39 C42.4477153,39 42,39.4477153 42,40 C42,40.5522847 42.4477153,41 43,41 L57,41 C57.5522847,41 58,40.5522847 58,40 C58,39.4477153 57.5522847,39 57,39 Z M51,25 L51,24 C51,23.4477153 51.4477153,23 52,23 C52.5522847,23 53,23.4477153 53,24 L53,25 C53,25.5522847 52.5522847,26 52,26 C51.4477153,26 51,25.5522847 51,25 Z" id="Shape" data-original="#000000" class="active-path" data-old_color="#0099FF" fill="#369FE5"/><path d="M2.361,10 L6,10 L6,21 L3,21 L3,23 L11,23 L11,21 L8,21 L8,10 L10,10 L10,15 C10,15.5522847 10.4477153,16 11,16 C11.5522847,16 12,15.5522847 12,15 L12,9.919 C12.4393302,9.75251765 12.7006608,9.29968396 12.625,8.836 L11.292,0.836 C11.2118339,0.353800359 10.794818,0.000225030526 10.306,0 L3.694,0 C3.20518199,0.000225030526 2.78816611,0.353800359 2.708,0.836 L1.375,8.836 C1.32681656,9.12582331 1.40852275,9.42217209 1.59842226,9.64635366 C1.78832176,9.87053522 2.06719875,9.99986476 2.361,10 Z" id="Shape" data-original="#000000" class="active-path" data-old_color="#0099FF" fill="#369FE5"/></g></g></g> </svg>
